# xmcd
#
# Track frame offsets:
# 150
# 13282
# 26661
# 43037
# 54392
# 67675
# 83329
# 96796
# 107851
# 123396
# 142039
# 153981
# 170366
# 183251
# 198554
# 210031
# 222014
# 239289
# 257326
# 275044
# 293139
# 308536
# 324221
# 342031
#
# Disc length: 4742 seconds
#
#
# Revision: 0
# Processed by: cddbd v1.5.2PL0 Copyright (c) Steve Scherf et al.
# Submitted via: FreeRIP 2.35 
#
DISCID=42128418
DTITLE=Oak Ridge Boys - The Definitive Collection
DYEAR=2006
DGENRE=Country
TTITLE0=Y'All Come Back Saloon
TTITLE1=You're The One
TTITLE2=I'll Be True to You
TTITLE3=Cryin' Again
TTITLE4=Come On In (aka Baby Take Your Coat Off)
TTITLE5=Sail Away
TTITLE6=Leaving Louisiana In The Broad Daylight
TTITLE7=Trying To Love Two Women
TTITLE8=Heart Of Mine
TTITLE9=Beautiful You
TTITLE10=Elvira
TTITLE11=(I'm Settin') Fancy Free
TTITLE12=Bobbie Sue
TTITLE13=I Wish You Could've Turned My Head (And Left My Heart Alone)
TTITLE14=Thank God For Kids
TTITLE15=American Made
TTITLE16=Love Song
TTITLE17=I Guess It Never Hurts To Hurt Sometimes
TTITLE18=Everyday
TTITLE19=Make My Life With You
TTITLE20=Little Things
TTITLE21=Touch A Hand, Make A Friend
TTITLE22=It Takes A Little Rain (To Make Love Grow)
TTITLE23=This Crazy Love
EXTD=MCA Nashville
EXTT0=
EXTT1=
EXTT2=
EXTT3=
EXTT4=
EXTT5=
EXTT6=
EXTT7=
EXTT8=
EXTT9=
EXTT10=
EXTT11=
EXTT12=
EXTT13=
EXTT14=
EXTT15=
EXTT16=
EXTT17=
EXTT18=
EXTT19=
EXTT20=
EXTT21=
EXTT22=
EXTT23=
PLAYORDER=
